<svg id="Camada_1" data-name="Camada 1" xmlns="http://www.w3.org/2000/svg" viewBox="0 0 598.15 135.3"><defs><style>.cls-1{fill:#fff;}.cls-2,.cls-4{fill:#0448ff;}.cls-3{fill:#0419db;}.cls-4{stroke:#fff;stroke-miterlimit:10;}</style></defs><path class="cls-1" d="M171.91,44.23V98.94h-7.14V74.13H136.9V98.94h-7.14V44.23h7.14v24h27.87v-24Z"/><path class="cls-1" d="M222.23,55.92v43h-7.15V92.58a13.84,13.84,0,0,1-5.69,5.14,17.55,17.55,0,0,1-8,1.85,19.38,19.38,0,0,1-9-2.08A15.14,15.14,0,0,1,186,91.25a20.61,20.61,0,0,1-2.31-10.13V55.92h7.06V80.18q0,6.36,3.22,9.77t8.79,3.41q5.73,0,9-3.53t3.29-10.28V55.92Z"/><path class="cls-1" d="M234.32,65.69A19.27,19.27,0,0,1,241.66,58a20.26,20.26,0,0,1,10.48-2.74,19.52,19.52,0,0,1,9.34,2.31,16.75,16.75,0,0,1,6.59,6.08V40.85h7.22V98.94h-7.22V90.85a16.69,16.69,0,0,1-6.28,6.32,18.67,18.67,0,0,1-9.73,2.47,19.55,19.55,0,0,1-17.74-10.75,24.67,24.67,0,0,1-2.67-11.62A24.2,24.2,0,0,1,234.32,65.69Zm31.79,3.18a13.92,13.92,0,0,0-5.3-5.53,15.05,15.05,0,0,0-14.64,0,13.73,13.73,0,0,0-5.26,5.49,17.5,17.5,0,0,0-2,8.48,17.9,17.9,0,0,0,2,8.6,13.88,13.88,0,0,0,5.26,5.57,14.24,14.24,0,0,0,7.3,1.92,14.47,14.47,0,0,0,7.34-1.92,13.84,13.84,0,0,0,5.3-5.57,17.71,17.71,0,0,0,2-8.52A17.5,17.5,0,0,0,266.11,68.87Z"/><path class="cls-1" d="M293.74,98a15,15,0,0,1-6.2-4.71,12.47,12.47,0,0,1-2.51-7h7.37a7.23,7.23,0,0,0,3,5.26,11.48,11.48,0,0,0,7.1,2A10.37,10.37,0,0,0,309,91.8a5.52,5.52,0,0,0,2.35-4.56,4.49,4.49,0,0,0-2.51-4.2A35.74,35.74,0,0,0,301,80.33a55.16,55.16,0,0,1-7.81-2.55,13.78,13.78,0,0,1-5.18-3.84,10,10,0,0,1-2.16-6.71,10.17,10.17,0,0,1,2-6.05,13.43,13.43,0,0,1,5.57-4.36,20.14,20.14,0,0,1,8.25-1.6q7.14,0,11.54,3.61a13,13,0,0,1,4.71,9.89h-7.15a7.36,7.36,0,0,0-2.71-5.42,10.08,10.08,0,0,0-6.63-2,10.23,10.23,0,0,0-6.12,1.65A5.1,5.1,0,0,0,293,67.23a4.72,4.72,0,0,0,1.38,3.49,10,10,0,0,0,3.45,2.2,59.75,59.75,0,0,0,5.77,1.84,63.06,63.06,0,0,1,7.54,2.47,13.36,13.36,0,0,1,5,3.65,9.76,9.76,0,0,1,2.16,6.36,10.93,10.93,0,0,1-2,6.36A13.22,13.22,0,0,1,310.81,98a19.8,19.8,0,0,1-8.2,1.6A22.34,22.34,0,0,1,293.74,98Z"/><path class="cls-1" d="M336.17,96.9a19.55,19.55,0,0,1-7.7-7.81,24,24,0,0,1-2.78-11.74,23.3,23.3,0,0,1,2.86-11.66,19.85,19.85,0,0,1,7.81-7.77,24,24,0,0,1,22.14,0,19.84,19.84,0,0,1,7.81,7.74,23.17,23.17,0,0,1,2.86,11.69,23,23,0,0,1-2.94,11.74,20.41,20.41,0,0,1-8,7.81,22.84,22.84,0,0,1-11.14,2.74A22,22,0,0,1,336.17,96.9Zm18.17-5.34a13.65,13.65,0,0,0,5.45-5.42,17.27,17.27,0,0,0,2.08-8.79,17.63,17.63,0,0,0-2-8.79,13.4,13.4,0,0,0-5.33-5.38,15.46,15.46,0,0,0-14.33,0A13,13,0,0,0,335,68.56a18.18,18.18,0,0,0-2,8.79,18.67,18.67,0,0,0,1.92,8.87,12.75,12.75,0,0,0,5.14,5.38,14.43,14.43,0,0,0,7.07,1.76A15.12,15.12,0,0,0,354.34,91.56Z"/><path class="cls-1" d="M412.27,59.89q4.86,4.74,4.87,13.69V98.94h-7.07V74.6q0-6.43-3.22-9.85a11.5,11.5,0,0,0-8.79-3.41,11.8,11.8,0,0,0-9,3.53q-3.33,3.54-3.33,10.28V98.94h-7.15v-43h7.15V62a14.22,14.22,0,0,1,5.77-5.1,17.91,17.91,0,0,1,8-1.8Q407.4,55.14,412.27,59.89Z"/><path class="cls-1" d="M427.65,98a4.87,4.87,0,0,1,3.46-8.32,4.46,4.46,0,0,1,3.33,1.41,5,5,0,0,1,0,6.91,4.46,4.46,0,0,1-3.33,1.41A4.73,4.73,0,0,1,427.65,98Z"/><path class="cls-1" d="M458.78,57.69a18.89,18.89,0,0,1,9.77-2.47A20.13,20.13,0,0,1,479,58a19.33,19.33,0,0,1,7.34,7.73A24.2,24.2,0,0,1,489,77.27a24.67,24.67,0,0,1-2.67,11.62,19.55,19.55,0,0,1-17.74,10.75,18.72,18.72,0,0,1-9.69-2.47,17.65,17.65,0,0,1-6.4-6.16v28.34h-7.14V55.92h7.14v7.93A17,17,0,0,1,458.78,57.69Zm20.92,11.1a13.69,13.69,0,0,0-5.3-5.49,14.64,14.64,0,0,0-7.34-1.88,14.28,14.28,0,0,0-7.26,1.92,14.06,14.06,0,0,0-5.34,5.57,19,19,0,0,0,0,17,14.06,14.06,0,0,0,5.34,5.57,14.28,14.28,0,0,0,7.26,1.92,14.47,14.47,0,0,0,7.34-1.92,13.84,13.84,0,0,0,5.3-5.57,17.9,17.9,0,0,0,2-8.6A17.5,17.5,0,0,0,479.7,68.79Z"/><path class="cls-1" d="M532.06,59.89q4.86,4.74,4.86,13.69V98.94h-7.06V74.6q0-6.43-3.22-9.85a11.53,11.53,0,0,0-8.79-3.41,11.79,11.79,0,0,0-9,3.53q-3.35,3.54-3.34,10.28V98.94h-7.14v-43h7.14V62a14.35,14.35,0,0,1,5.77-5.1,18,18,0,0,1,8.05-1.8Q527.19,55.14,532.06,59.89Z"/><path class="cls-1" d="M576.13,57.65a16.12,16.12,0,0,1,6.24,6.12V55.92h7.23v44a21.43,21.43,0,0,1-2.52,10.48,17.85,17.85,0,0,1-7.18,7.18A22,22,0,0,1,569,120.13q-8.47,0-14.13-4a15.64,15.64,0,0,1-6.67-10.91h7.06a11.3,11.3,0,0,0,4.87,6.32,16,16,0,0,0,8.87,2.39,13.07,13.07,0,0,0,9.61-3.69q3.74-3.69,3.73-10.36v-9a17.1,17.1,0,0,1-6.28,6.28,18.41,18.41,0,0,1-9.73,2.51,19.55,19.55,0,0,1-17.74-10.75A24.67,24.67,0,0,1,546,77.27a24.2,24.2,0,0,1,2.67-11.58A19.33,19.33,0,0,1,556,58a20.13,20.13,0,0,1,10.4-2.74A19.17,19.17,0,0,1,576.13,57.65Zm4.28,11.22a13.86,13.86,0,0,0-5.3-5.53,15.05,15.05,0,0,0-14.64,0,13.73,13.73,0,0,0-5.26,5.49,17.5,17.5,0,0,0-2,8.48,17.9,17.9,0,0,0,2,8.6,13.88,13.88,0,0,0,5.26,5.57,14.24,14.24,0,0,0,7.3,1.92,14.44,14.44,0,0,0,7.34-1.92,13.77,13.77,0,0,0,5.3-5.57,17.71,17.71,0,0,0,2-8.52A17.5,17.5,0,0,0,580.41,68.87Z"/><path class="cls-2" d="M100.8,33.59,76.41,9.07H10.57V131.43H100.8Z"/><polygon class="cls-3" points="100.8 33.59 76.41 33.59 76.41 9.06 100.8 33.59"/><rect class="cls-4" x="23.4" y="44.78" width="64.57" height="64.58" rx="12"/><path class="cls-1" d="M65.23,59.49V75h-18V59.49H42.58V94.88H47.2v-16h18v16h4.62V59.49Z"/></svg>